<svg width="25" height="24" viewBox="0 0 25 24" fill="none" xmlns="http://www.w3.org/2000/svg">
<path d="M7.57129 21C7.02129 21 6.55063 20.8043 6.15929 20.413C5.76796 20.0217 5.57196 19.5507 5.57129 19V6C5.28796 6 5.05063 5.904 4.85929 5.712C4.66796 5.52 4.57196 5.28267 4.57129 5C4.57063 4.71733 4.66663 4.48 4.85929 4.288C5.05196 4.096 5.28929 4 5.57129 4H9.57129C9.57129 3.71667 9.66729 3.47933 9.85929 3.288C10.0513 3.09667 10.2886 3.00067 10.5713 3H14.5713C14.8546 3 15.0923 3.096 15.2843 3.288C15.4763 3.48 15.572 3.71733 15.5713 4H19.5713C19.8546 4 20.0923 4.096 20.2843 4.288C20.4763 4.48 20.572 4.71733 20.5713 5C20.5706 5.28267 20.4746 5.52033 20.2833 5.713C20.092 5.90567 19.8546 6.00133 19.5713 6V19C19.5713 19.55 19.3756 20.021 18.9843 20.413C18.593 20.805 18.122 21.0007 17.5713 21H7.57129ZM17.5713 6H7.57129V19H17.5713V6ZM10.5713 17C10.8546 17 11.0923 16.904 11.2843 16.712C11.4763 16.52 11.572 16.2827 11.5713 16V9C11.5713 8.71667 11.4753 8.47933 11.2833 8.288C11.0913 8.09667 10.854 8.00067 10.5713 8C10.2886 7.99933 10.0513 8.09533 9.85929 8.288C9.66729 8.48067 9.57129 8.718 9.57129 9V16C9.57129 16.2833 9.66729 16.521 9.85929 16.713C10.0513 16.905 10.2886 17.0007 10.5713 17ZM14.5713 17C14.8546 17 15.0923 16.904 15.2843 16.712C15.4763 16.52 15.572 16.2827 15.5713 16V9C15.5713 8.71667 15.4753 8.47933 15.2833 8.288C15.0913 8.09667 14.854 8.00067 14.5713 8C14.2886 7.99933 14.0513 8.09533 13.8593 8.288C13.6673 8.48067 13.5713 8.718 13.5713 9V16C13.5713 16.2833 13.6673 16.521 13.8593 16.713C14.0513 16.905 14.2886 17.0007 14.5713 17Z" fill="#DF0404"/>
</svg>
