<svg width="25" height="24" viewBox="0 0 25 24" fill="none" xmlns="http://www.w3.org/2000/svg">
<path d="M22.1153 11.045C22.4193 11.471 22.5713 11.685 22.5713 12C22.5713 12.316 22.4193 12.529 22.1153 12.955C20.7493 14.871 17.2603 19 12.5713 19C7.88129 19 4.39329 14.87 3.02729 12.955C2.72329 12.529 2.57129 12.315 2.57129 12C2.57129 11.684 2.72329 11.471 3.02729 11.045C4.39329 9.129 7.88229 5 12.5713 5C17.2613 5 20.7493 9.13 22.1153 11.045Z" stroke="#8B909A" stroke-width="1.5" stroke-linecap="round" stroke-linejoin="round"/>
<path d="M15.5713 12C15.5713 11.2044 15.2552 10.4413 14.6926 9.87868C14.13 9.31607 13.3669 9 12.5713 9C11.7756 9 11.0126 9.31607 10.45 9.87868C9.88736 10.4413 9.57129 11.2044 9.57129 12C9.57129 12.7956 9.88736 13.5587 10.45 14.1213C11.0126 14.6839 11.7756 15 12.5713 15C13.3669 15 14.13 14.6839 14.6926 14.1213C15.2552 13.5587 15.5713 12.7956 15.5713 12Z" stroke="#8B909A" stroke-width="1.5" stroke-linecap="round" stroke-linejoin="round"/>
</svg>
