<svg width="25" height="25" viewBox="0 0 25 25" fill="none" xmlns="http://www.w3.org/2000/svg">
<g clip-path="url(#clip0_34_730)">
<path d="M10.6873 14.347H14.3123C14.462 14.347 14.5653 14.393 14.655 14.4827C14.7434 14.5711 14.7888 14.6733 14.7888 14.8235V21.4583H20.2361C20.0858 21.6057 19.9307 21.6663 19.7498 21.6663H15.0574C14.9437 21.6663 14.8571 21.6411 14.7839 21.5911L14.7146 21.5325C14.626 21.4432 14.5809 21.3405 14.5808 21.1907V14.5569H10.4197V21.1907C10.4196 21.3043 10.3935 21.3901 10.3435 21.4632L10.2859 21.5325C10.1974 21.621 10.0945 21.6663 9.94409 21.6663H5.24976C5.06901 21.6662 4.91458 21.6055 4.7644 21.4583H10.2117V14.8235C10.2117 14.7114 10.2367 14.6261 10.2869 14.553L10.3455 14.4827L10.3474 14.4817C10.436 14.3928 10.5378 14.347 10.6873 14.347ZM12.4968 4.07646C12.7857 4.07652 13.0403 4.14981 13.2722 4.29814L13.3699 4.3665L19.8757 9.29131L20.1775 8.89287L19.8757 9.29228L19.8826 9.29619C20.0161 9.394 20.1275 9.51172 20.2185 9.65166L20.3025 9.80009L20.3035 9.80107C20.4071 10.0077 20.4587 10.2238 20.4587 10.4554V20.9583C20.4587 21.1392 20.3971 21.2934 20.2498 21.4436V10.4554C20.2497 10.2561 20.2055 10.0615 20.1101 9.88213C20.0232 9.71886 19.9054 9.57903 19.7625 9.46318L19.7556 9.45732L19.7488 9.45244L13.2429 4.54912C13.0294 4.37387 12.7745 4.28642 12.4998 4.28642C12.2259 4.28649 11.9714 4.37303 11.7585 4.54814L5.25171 9.45244L5.24097 9.45927L5.23218 9.46709C5.09454 9.58198 4.97887 9.71854 4.89233 9.87627C4.81752 10.0127 4.77411 10.1586 4.75757 10.3079L4.74976 10.4554V21.4427C4.60304 21.2927 4.54175 21.1388 4.54175 20.9583V10.4554C4.54177 10.2238 4.5934 10.0077 4.69702 9.80107C4.77502 9.64561 4.87263 9.51315 4.99194 9.40166L5.1189 9.29716L5.12378 9.29326L11.6306 4.36552L11.6326 4.36455C11.8843 4.17235 12.1667 4.07646 12.4968 4.07646Z" fill="#BFD8D9" stroke="#BFD8D9"/>
</g>
<defs>
<clipPath id="clip0_34_730">
<rect width="25" height="25" fill="white"/>
</clipPath>
</defs>
</svg>
