<svg width="22" height="22" viewBox="0 0 22 22" fill="none" xmlns="http://www.w3.org/2000/svg">
<path d="M13.7501 3.66666C12.7776 3.66666 11.845 4.05296 11.1574 4.7406C10.4697 5.42823 10.0834 6.36086 10.0834 7.33332C10.0834 8.30578 10.4697 9.23841 11.1574 9.92605C11.845 10.6137 12.7776 11 13.7501 11C14.7225 11 15.6552 10.6137 16.3428 9.92605C17.0304 9.23841 17.4167 8.30578 17.4167 7.33332C17.4167 6.36086 17.0304 5.42823 16.3428 4.7406C15.6552 4.05296 14.7225 3.66666 13.7501 3.66666ZM13.7501 5.40832C14.0029 5.40832 14.2532 5.45811 14.4867 5.55486C14.7203 5.6516 14.9325 5.79339 15.1113 5.97214C15.29 6.1509 15.4318 6.36311 15.5286 6.59666C15.6253 6.83021 15.6751 7.08053 15.6751 7.33332C15.6751 7.58612 15.6253 7.83644 15.5286 8.06999C15.4318 8.30354 15.29 8.51575 15.1113 8.6945C14.9325 8.87326 14.7203 9.01505 14.4867 9.11179C14.2532 9.20853 14.0029 9.25832 13.7501 9.25832C13.4973 9.25832 13.247 9.20853 13.0134 9.11179C12.7799 9.01505 12.5677 8.87326 12.3889 8.6945C12.2101 8.51575 12.0684 8.30354 11.9716 8.06999C11.8749 7.83644 11.8251 7.58612 11.8251 7.33332C11.8251 6.82278 12.0279 6.33315 12.3889 5.97214C12.7499 5.61113 13.2395 5.40832 13.7501 5.40832ZM3.66675 6.41666V9.16666H0.916748V11H3.66675V13.75H5.50008V11H8.25008V9.16666H5.50008V6.41666H3.66675ZM13.7501 11.9167C11.3026 11.9167 6.41675 13.1358 6.41675 15.5833V18.3333H21.0834V15.5833C21.0834 13.1358 16.1976 11.9167 13.7501 11.9167ZM13.7501 13.6583C16.4726 13.6583 19.3417 14.9967 19.3417 15.5833V16.5917H8.15841V15.5833C8.15841 14.9967 11.0001 13.6583 13.7501 13.6583Z" fill="white" fill-opacity="0.75"/>
</svg>
