<svg width="16" height="20" viewBox="0 0 16 20" fill="none" xmlns="http://www.w3.org/2000/svg">
<path d="M3.4375 11.375H8.9375V12.75H3.4375V11.375ZM3.4375 7.9375H11.6875V9.3125H3.4375V7.9375ZM3.4375 14.8125H6.875V16.1875H3.4375V14.8125Z" fill="white"/>
<path d="M13.75 2.4375H11.6875V1.75C11.6875 1.38533 11.5426 1.03559 11.2848 0.777728C11.0269 0.519866 10.6772 0.375 10.3125 0.375H4.8125C4.44783 0.375 4.09809 0.519866 3.84023 0.777728C3.58237 1.03559 3.4375 1.38533 3.4375 1.75V2.4375H1.375C1.01033 2.4375 0.660591 2.58237 0.402728 2.84023C0.144866 3.09809 0 3.44783 0 3.8125V18.25C0 18.6147 0.144866 18.9644 0.402728 19.2223C0.660591 19.4801 1.01033 19.625 1.375 19.625H13.75C14.1147 19.625 14.4644 19.4801 14.7223 19.2223C14.9801 18.9644 15.125 18.6147 15.125 18.25V3.8125C15.125 3.44783 14.9801 3.09809 14.7223 2.84023C14.4644 2.58237 14.1147 2.4375 13.75 2.4375ZM4.8125 1.75H10.3125V4.5H4.8125V1.75ZM13.75 18.25H1.375V3.8125H3.4375V5.875H11.6875V3.8125H13.75V18.25Z" fill="white"/>
</svg>
