<svg width="21" height="21" viewBox="0 0 21 21" fill="none" xmlns="http://www.w3.org/2000/svg">
<path d="M1.75 1.75H19.25V11.375H3.5V17.5H11.375V19.25H1.75V1.75ZM3.5 9.625H17.5V3.5H3.5V9.625ZM5.24825 5.6875H7.00175V7.441H5.24825V5.6875ZM15.5312 14C15.1251 14 14.7357 14.1613 14.4485 14.4485C14.1613 14.7357 14 15.1251 14 15.5312C14 15.9374 14.1613 16.3268 14.4485 16.614C14.7357 16.9012 15.1251 17.0625 15.5312 17.0625C15.9374 17.0625 16.3268 16.9012 16.614 16.614C16.9012 16.3268 17.0625 15.9374 17.0625 15.5312C17.0625 15.1251 16.9012 14.7357 16.614 14.4485C16.3268 14.1613 15.9374 14 15.5312 14ZM12.25 15.5312C12.2501 15.0291 12.3655 14.5337 12.5872 14.0832C12.8089 13.6327 13.1311 13.2391 13.5289 12.9326C13.9266 12.6262 14.3894 12.4152 14.8816 12.3158C15.3738 12.2164 15.8822 12.2312 16.3678 12.3592C16.8533 12.4873 17.303 12.725 17.6822 13.0541C18.0614 13.3833 18.36 13.7951 18.555 14.2578C18.75 14.7205 18.8362 15.2218 18.8069 15.7231C18.7777 16.2243 18.6338 16.7122 18.3864 17.1491L19.831 18.5938L18.5938 19.831L17.1491 18.3873C16.6499 18.6702 16.0851 18.8173 15.5113 18.8138C14.9374 18.8103 14.3745 18.6563 13.8787 18.3673C13.3829 18.0783 12.9716 17.6643 12.6858 17.1667C12.4 16.669 12.2498 16.1051 12.25 15.5312ZM5.24825 13.5625H7.00175V15.316H5.24825V13.5625Z" fill="white" fill-opacity="0.75"/>
</svg>
