<svg width="29" height="29" viewBox="0 0 29 29" fill="none" xmlns="http://www.w3.org/2000/svg">
<path d="M9.96875 5.4375V23.5625H4.53125C4.2909 23.5625 4.06039 23.467 3.89043 23.2971C3.72048 23.1271 3.625 22.8966 3.625 22.6562V6.34375C3.625 6.1034 3.72048 5.87289 3.89043 5.70293C4.06039 5.53298 4.2909 5.4375 4.53125 5.4375H9.96875Z" fill="black" fill-opacity="0.04"/>
<path d="M24.4688 4.53125H4.53125C4.05055 4.53125 3.58953 4.72221 3.24962 5.06212C2.90971 5.40203 2.71875 5.86305 2.71875 6.34375V22.6562C2.71875 23.137 2.90971 23.598 3.24962 23.9379C3.58953 24.2778 4.05055 24.4688 4.53125 24.4688H24.4688C24.9495 24.4688 25.4105 24.2778 25.7504 23.9379C26.0903 23.598 26.2812 23.137 26.2812 22.6562V6.34375C26.2812 5.86305 26.0903 5.40203 25.7504 5.06212C25.4105 4.72221 24.9495 4.53125 24.4688 4.53125ZM4.53125 17.2188H6.34375C6.5841 17.2188 6.81461 17.1233 6.98457 16.9533C7.15452 16.7834 7.25 16.5529 7.25 16.3125C7.25 16.0721 7.15452 15.8416 6.98457 15.6717C6.81461 15.5017 6.5841 15.4062 6.34375 15.4062H4.53125V13.5938H6.34375C6.5841 13.5938 6.81461 13.4983 6.98457 13.3283C7.15452 13.1584 7.25 12.9279 7.25 12.6875C7.25 12.4471 7.15452 12.2166 6.98457 12.0467C6.81461 11.8767 6.5841 11.7812 6.34375 11.7812H4.53125V9.96875H6.34375C6.5841 9.96875 6.81461 9.87327 6.98457 9.70332C7.15452 9.53336 7.25 9.30285 7.25 9.0625C7.25 8.82215 7.15452 8.59164 6.98457 8.42168C6.81461 8.25173 6.5841 8.15625 6.34375 8.15625H4.53125V6.34375H9.0625V22.6562H4.53125V17.2188ZM24.4688 22.6562H10.875V6.34375H24.4688V22.6562Z" fill="black"/>
</svg>
