<svg width="22" height="22" viewBox="0 0 22 22" fill="none" xmlns="http://www.w3.org/2000/svg">
<path d="M3.66732 18.3333C3.16315 18.3333 2.73171 18.154 2.37298 17.7953C2.01426 17.4365 1.8346 17.0048 1.83398 16.5V5.50001C1.83398 4.99584 2.01365 4.56439 2.37298 4.20567C2.73232 3.84695 3.16376 3.66728 3.66732 3.66667H18.334C18.8382 3.66667 19.2699 3.84634 19.6292 4.20567C19.9886 4.565 20.1679 4.99645 20.1673 5.50001V16.5C20.1673 17.0042 19.988 17.4359 19.6292 17.7953C19.2705 18.1546 18.8388 18.3339 18.334 18.3333H3.66732ZM11.0007 11.9167L3.66732 7.33334V16.5H18.334V7.33334L11.0007 11.9167ZM11.0007 10.0833L18.334 5.50001H3.66732L11.0007 10.0833ZM3.66732 7.33334V5.50001V16.5V7.33334Z" fill="white" fill-opacity="0.75"/>
</svg>
